<svg xmlns="http://www.w3.org/2000/svg" width="18.9" height="17.2" viewBox="0 0 18.9 17.2">
  <g id="Group_10515" data-name="Group 10515" transform="translate(0 -0.1)">
    <path id="Path_10835" data-name="Path 10835" d="M13.9,5.4a4.4,4.4,0,1,0-8.8,0,4.4,4.4,0,1,0,8.8,0Z" fill="none"/>
    <path id="Path_10836" data-name="Path 10836" d="M13,9.5h0A5.383,5.383,0,0,0,9.4.1,5.209,5.209,0,0,0,4.1,5.4a5.207,5.207,0,0,0,1.8,4A9.63,9.63,0,0,0,0,17.3H1a8.525,8.525,0,0,1,5.9-7.2,5.94,5.94,0,0,0,2.6.7,4.845,4.845,0,0,0,2.6-.7h0a8.421,8.421,0,0,1,5.8,7.2h1A9.442,9.442,0,0,0,13,9.5ZM5.1,5.4a4.4,4.4,0,1,1,8.8,0,4.4,4.4,0,1,1-8.8,0Z" fill="#fff"/>
  </g>
</svg>
