<svg xmlns="http://www.w3.org/2000/svg" width="19" height="18" viewBox="0 0 19 18">
  <g id="Group_9935" data-name="Group 9935" transform="translate(-1223 -11)">
    <g id="Group_9538" data-name="Group 9538" transform="translate(966 -11)">
      <g id="Union_1" data-name="Union 1" transform="translate(-223 22)" fill="none">
        <path d="M498.986,18H480.013c-.009-.173-.013-.341-.013-.5A9.511,9.511,0,0,1,485.257,9a5.5,5.5,0,1,1,8.485,0A9.511,9.511,0,0,1,499,17.5c0,.166,0,.333-.013.5h0Z" stroke="none"/>
        <path d="M 497.9849243164062 17 C 497.9010314941406 15.57119750976562 497.458740234375 14.18957138061523 496.6931457519531 12.97684001922607 C 495.8605041503906 11.65793037414551 494.6850280761719 10.59224033355713 493.2937927246094 9.894969940185547 L 492.1708374023438 9.332159996032715 L 492.9710388183594 8.363920211791992 C 493.6345825195312 7.56102991104126 494 6.543900012969971 494 5.499899864196777 C 494 3.018650054931641 491.98095703125 1 489.4992065429688 1 C 487.0179443359375 1 484.9992980957031 3.018650054931641 484.9992980957031 5.499899864196777 C 484.9992980957031 6.543700218200684 485.3647155761719 7.560840129852295 486.0282592773438 8.363940238952637 L 486.8282165527344 9.332209587097168 L 485.705322265625 9.894909858703613 C 484.3141174316406 10.59206962585449 483.138671875 11.65769958496094 482.3060913085938 12.97659015655518 C 481.5405578613281 14.18929481506348 481.0982666015625 15.57104015350342 481.0143737792969 17 L 497.9849243164062 17 M 498.9869995117188 18 L 480.0132141113281 18 C 480.0042114257812 17.82719993591309 479.9997253417969 17.65889930725098 479.9997253417969 17.5004997253418 C 479.9997253417969 13.78524017333984 482.1425476074219 10.56173992156982 485.25732421875 9.000880241394043 C 484.4715576171875 8.049819946289062 483.9992980957031 6.829919815063477 483.9992980957031 5.499899864196777 C 483.9992980957031 2.462399959564209 486.4617004394531 0 489.4992065429688 0 C 492.53759765625 0 495 2.462399959564209 495 5.499899864196777 C 495 6.830100059509277 494.5278930664062 8.049860000610352 493.7418518066406 9.000969886779785 C 496.8565063476562 10.56198978424072 498.9996032714844 13.78555965423584 498.9996032714844 17.5004997253418 C 498.9996032714844 17.66609954833984 498.9960021972656 17.83349990844727 498.9869995117188 17.99909973144531 L 498.9869995117188 18 Z" stroke="none" fill="#f2f2f2"/>
      </g>
      <g id="Ellipse_2" data-name="Ellipse 2" transform="translate(261 22)" fill="none" stroke="#f2f2f2" stroke-width="1">
        <circle cx="5.5" cy="5.5" r="5.5" stroke="none"/>
        <circle cx="5.5" cy="5.5" r="5" fill="none"/>
      </g>
    </g>
    <path id="Path_10003" data-name="Path 10003" d="M0,0H17V1H0Z" transform="translate(1224 28)" fill="#2d323d"/>
  </g>
</svg>
