<svg xmlns="http://www.w3.org/2000/svg" width="25.194" height="22.041" viewBox="0 0 25.194 22.041">
  <g id="Group_9934" data-name="Group 9934" transform="translate(-1352.806 -71)">
    <g id="Group_9932" data-name="Group 9932">
      <g id="Group_9564" data-name="Group 9564" transform="translate(1032 48)">
        <g id="Path_10001" data-name="Path 10001" transform="translate(320.806 22.447)" fill="none">
          <path d="M13.906,22.594H.289a.437.437,0,0,1-.231-.115A.212.212,0,0,1,0,22.306L.635,8.689A.273.273,0,0,1,.923,8.4H13.271a.273.273,0,0,1,.289.289l.635,13.617a.347.347,0,0,1-.058.231C14.079,22.537,14.021,22.594,13.906,22.594Z" stroke="none"/>
          <path d="M 13.16018867492676 21.59444236755371 L 12.59180450439453 9.400001525878906 L 1.602638959884644 9.400001525878906 L 1.034255146980286 21.59444236755371 L 13.16018867492676 21.59444236755371 M 13.9059419631958 22.59444236755371 L 0.2885018587112427 22.59444236755371 C 0.2308018505573273 22.59444236755371 0.1154018491506577 22.53674125671387 0.05770185217261314 22.47904205322266 C 1.851348883974424e-06 22.42134284973145 1.851348883974424e-06 22.3636417388916 1.851348883974424e-06 22.30594253540039 L 0.6347118616104126 8.688502311706543 C 0.6347118616104126 8.515401840209961 0.7501118779182434 8.400001525878906 0.9232118725776672 8.400001525878906 L 13.27123165130615 8.400001525878906 C 13.44433212280273 8.400001525878906 13.55973148345947 8.515401840209961 13.55973148345947 8.688502311706543 L 14.19444179534912 22.30594253540039 C 14.19444179534912 22.3636417388916 14.19444179534912 22.47904205322266 14.13674163818359 22.53674125671387 C 14.07904148101807 22.53674125671387 14.02134227752686 22.59444236755371 13.9059419631958 22.59444236755371 Z" stroke="none" fill="#f2f2f2"/>
        </g>
        <path id="Path_10002" data-name="Path 10002" d="M6.4,5.58V3.4a3.4,3.4,0,0,1,6.809,0V5.58" transform="translate(318.098 26)" fill="none" stroke="#f2f2f2" stroke-width="1"/>
      </g>
      <circle id="Ellipse_15" data-name="Ellipse 15" cx="8" cy="8" r="8" transform="translate(1362 71)" fill="#ff3465"/>
    </g>
    <text id="_2" data-name="2" transform="translate(1367 82)" fill="#fff" font-size="10" font-family="Open Sans" font-weight="600"><tspan x="0" y="0">2</tspan></text>
  </g>
</svg>
