<svg id="num" xmlns="http://www.w3.org/2000/svg" width="21.333" height="21.333" viewBox="0 0 21.333 21.333">
  <g id="bg" fill="none">
    <path d="M10.667,0A10.667,10.667,0,1,1,0,10.667,10.667,10.667,0,0,1,10.667,0Z" stroke="none"/>
    <path d="M 10.66666412353516 1.000003814697266 C 5.336454391479492 1.000003814697266 1.000003814697266 5.336454391479492 1.000003814697266 10.66666412353516 C 1.000003814697266 15.99687385559082 5.336454391479492 20.33332443237305 10.66666412353516 20.33332443237305 C 15.99687385559082 20.33332443237305 20.33332443237305 15.99687385559082 20.33332443237305 10.66666412353516 C 20.33332443237305 5.336454391479492 15.99687385559082 1.000003814697266 10.66666412353516 1.000003814697266 M 10.66666412353516 3.814697265625e-06 C 16.55769348144531 3.814697265625e-06 21.33332443237305 4.775623321533203 21.33332443237305 10.66666412353516 C 21.33332443237305 16.55769348144531 16.55769348144531 21.33332443237305 10.66666412353516 21.33332443237305 C 4.775623321533203 21.33332443237305 3.814697265625e-06 16.55769348144531 3.814697265625e-06 10.66666412353516 C 3.814697265625e-06 4.775623321533203 4.775623321533203 3.814697265625e-06 10.66666412353516 3.814697265625e-06 Z" stroke="none" fill="#fff"/>
  </g>
  <path id="play-1" d="M11.016,14.45l4.94-3.131-4.94-3.131ZM10,7.875a.806.806,0,0,1,1.3-.712l5.367,3.4a.86.86,0,0,1,0,1.512l-5.367,3.4a.806.806,0,0,1-1.3-.712V7.874Z" transform="translate(-2.178 -0.602)" fill="#fff"/>
</svg>
