<svg xmlns="http://www.w3.org/2000/svg" width="12" height="10.667" viewBox="0 0 12 10.667">
  <g id="path" transform="translate(-3 -5)" fill="#fff" fill-rule="evenodd">
    <path d="M 9.000003814697266 14.95962047576904 C 8.408573150634766 14.37213516235352 7.84296178817749 13.82855796813965 7.334033966064453 13.33945655822754 C 5.025263786315918 11.12063694000244 3.500003814697266 9.654796600341797 3.500003814697266 7.999996662139893 C 3.500003814697266 6.574766635894775 4.574773788452148 5.499996662139893 6.000003814697266 5.499996662139893 C 7.091454029083252 5.499996662139893 8.157013893127441 6.206707000732422 8.533683776855469 7.180387020111084 L 9.000003814697266 8.385856628417969 L 9.466323852539062 7.180387020111084 C 9.84299373626709 6.206707000732422 10.90855407714844 5.499996662139893 12.00000381469727 5.499996662139893 C 13.42523384094238 5.499996662139893 14.50000381469727 6.574766635894775 14.50000381469727 7.999996662139893 C 14.50000381469727 9.654807090759277 12.97473335266113 11.12065696716309 10.66595363616943 13.33948707580566 C 10.15703392028809 13.82857990264893 9.591428756713867 14.37214279174805 9.000003814697266 14.95962047576904 Z" stroke="none"/>
    <path d="M 6.000003814697266 5.999997138977051 C 4.841123580932617 5.999997138977051 4.000003814697266 6.841116905212402 4.000003814697266 7.999997138977051 C 4.000003814697266 9.441856384277344 5.464183807373047 10.84898662567139 7.680493354797363 12.97894668579102 C 8.089034080505371 13.37157535552979 8.533984184265137 13.79919052124023 9.000003814697266 14.25689792633057 C 9.466017723083496 13.79919815063477 9.910953521728516 13.3715991973877 10.31949424743652 12.97897720336914 C 12.53581428527832 10.84899711608887 14.00000381469727 9.441856384277344 14.00000381469727 7.999997138977051 C 14.00000381469727 6.841116905212402 13.15888404846191 5.999997138977051 12.00000381469727 5.999997138977051 C 11.1215238571167 5.999997138977051 10.23275375366211 6.585006713867188 9.932653427124023 7.360786437988281 L 9.000003814697266 9.771717071533203 L 8.067354202270508 7.360786437988281 C 7.767253875732422 6.585006713867188 6.878483772277832 5.999997138977051 6.000003814697266 5.999997138977051 M 6.000003814697266 4.999997138977051 C 7.302003860473633 4.999997138977051 8.55333423614502 5.8453369140625 9.000003814697266 6.999997138977051 C 9.446673393249512 5.8453369140625 10.69667434692383 4.999997138977051 12.00000381469727 4.999997138977051 C 13.69534397125244 4.999997138977051 15.00000381469727 6.288006782531738 15.00000381469727 7.999997138977051 C 15.00000381469727 10.3526668548584 12.47134399414062 12.17200660705566 9.000003814697266 15.66667747497559 C 5.528674125671387 12.17200660705566 3.000003814697266 10.3526668548584 3.000003814697266 7.999997138977051 C 3.000003814697266 6.288006782531738 4.30466365814209 4.999997138977051 6.000003814697266 4.999997138977051 Z" stroke="none" fill="#463f5f"/>
  </g>
</svg>
