<svg xmlns="http://www.w3.org/2000/svg" xmlns:xlink="http://www.w3.org/1999/xlink" width="20" height="17.778" viewBox="0 0 20 17.778">
  <defs>
    <clipPath id="clip-path">
      <rect width="20" height="17.778" fill="none"/>
    </clipPath>
  </defs>
  <g id="path" clip-path="url(#clip-path)">
    <g id="path-2" data-name="path" transform="translate(-3 -5)" fill="none" fill-rule="evenodd">
      <path d="M13,8.333A5.48,5.48,0,0,0,8,5a4.9,4.9,0,0,0-5,5c0,3.921,4.214,6.953,10,12.778C18.786,16.953,23,13.921,23,10a4.9,4.9,0,0,0-5-5A5.477,5.477,0,0,0,13,8.333Z" stroke="none"/>
      <path d="M 8.000001907348633 5.999998092651367 C 5.719631195068359 5.999998092651367 4.000001907348633 7.719629287719727 4.000001907348633 9.999998092651367 C 4.000001907348633 12.68701839447021 6.52174186706543 15.11050796508789 10.3388614654541 18.77890777587891 C 11.15384960174561 19.56214141845703 12.05596351623535 20.42910385131836 13.00000190734863 21.36458206176758 C 13.94404029846191 20.42910385131836 14.84615421295166 19.56214141845703 15.66114234924316 18.77890777587891 C 19.47826194763184 15.11050796508789 22.00000190734863 12.68701839447021 22.00000190734863 9.999998092651367 C 22.00000190734863 7.719629287719727 20.28037261962891 5.999998092651367 18.00000190734863 5.999998092651367 C 16.24709320068359 5.999998092651367 14.53653144836426 7.133037567138672 13.93265151977539 8.694118499755859 L 13.00000190734863 11.1051082611084 L 12.06735229492188 8.694118499755859 C 11.46347236633301 7.133037567138672 9.752912521362305 5.999998092651367 8.000001907348633 5.999998092651367 M 8.000001907348633 4.999998092651367 C 10.17000198364258 4.999998092651367 12.25556182861328 6.40888786315918 13.00000190734863 8.333337783813477 C 13.74444198608398 6.40888786315918 15.82778167724609 4.999998092651367 18.00000190734863 4.999998092651367 C 20.8255615234375 4.999998092651367 23.00000190734863 7.14666748046875 23.00000190734863 9.999998092651367 C 23.00000190734863 13.92110824584961 18.78556251525879 16.95332717895508 13.00000190734863 22.77777862548828 C 7.214441299438477 16.95332717895508 3.000001907348633 13.92110824584961 3.000001907348633 9.999998092651367 C 3.000001907348633 7.14666748046875 5.174442291259766 4.999998092651367 8.000001907348633 4.999998092651367 Z" stroke="none" fill="#f2f2f2"/>
    </g>
  </g>
</svg>
